<?xml version="1.0" standalone="no"?>
<!DOCTYPE svg PUBLIC "-//W3C//DTD SVG 20010904//EN"
 "http://www.w3.org/TR/2001/REC-SVG-20010904/DTD/svg10.dtd">
<svg version="1.0" xmlns="http://www.w3.org/2000/svg"
 width="360.000000pt" height="334.000000pt" viewBox="0 0 360.000000 334.000000"
 preserveAspectRatio="xMidYMid meet">

<g transform="translate(0.000000,334.000000) scale(0.100000,-0.100000)"
fill="#000000" stroke="none">
<path d="M2010 3325 c-138 -29 -244 -83 -426 -215 -177 -129 -218 -150 -288
-150 -32 0 -137 16 -235 36 -309 62 -422 57 -585 -24 -171 -85 -283 -228 -321
-410 -32 -156 -10 -373 61 -610 l37 -124 -25 -21 c-84 -72 -176 -228 -209
-355 -48 -190 1 -323 144 -391 64 -30 190 -61 250 -61 19 0 55 -3 80 -6 l45
-7 -15 -32 c-14 -29 -21 -33 -66 -38 -72 -6 -98 -38 -97 -115 1 -32 -2 -78 -5
-103 -6 -42 -4 -50 24 -81 73 -83 246 -73 372 22 62 46 53 51 129 -75 79 -132
219 -340 284 -422 85 -106 161 -152 230 -139 62 12 127 103 125 176 l-1 35 -8
-42 c-28 -141 -116 -193 -223 -130 -211 124 -848 1262 -1045 1867 -67 206 -86
312 -86 485 0 136 3 158 27 231 66 198 234 345 448 390 99 21 204 14 424 -31
96 -19 198 -35 227 -36 l53 -1 -60 -29 c-33 -16 -49 -27 -35 -23 57 15 209
102 336 195 168 121 235 159 355 201 86 29 105 32 219 32 321 0 548 -138 671
-409 l30 -68 -29 -31 c-71 -74 -79 -124 -51 -323 36 -269 29 -310 -85 -507
-85 -148 -106 -268 -70 -398 16 -54 16 -62 -1 -114 -20 -64 -23 -165 -6 -216
7 -21 13 -123 15 -249 3 -234 17 -339 66 -494 57 -179 62 -289 17 -370 -46
-82 -141 -96 -259 -37 -115 57 -238 160 -473 397 -202 204 -238 236 -298 265
-48 24 -86 34 -125 36 l-57 3 51 -8 c45 -7 144 -44 144 -53 0 -2 -11 -19 -25
-38 -47 -63 -111 -264 -140 -435 -13 -77 6 -26 26 66 36 178 101 353 143 388
23 19 56 -8 316 -270 231 -233 317 -303 445 -365 87 -42 154 -46 206 -11 96
65 113 190 54 388 -39 130 -63 245 -74 358 -14 130 -14 312 -1 346 8 20 6 34
-7 58 -26 51 -29 170 -5 240 19 58 19 59 0 120 -15 46 -19 81 -15 137 5 89 30
156 111 298 31 55 61 115 66 133 14 50 12 210 -5 319 -23 151 -20 218 13 281
39 74 93 111 172 117 96 7 160 -41 224 -165 55 -109 72 -287 41 -423 -18 -76
-72 -215 -88 -228 -7 -5 -34 -17 -62 -27 -111 -40 -237 -152 -270 -239 -30
-78 -1 -149 65 -163 34 -6 37 -15 14 -34 -29 -24 -46 -71 -41 -111 7 -53 30
-84 79 -109 l41 -21 -30 -24 c-39 -30 -67 -97 -58 -141 3 -18 19 -49 36 -67
l30 -34 -30 -7 c-36 -8 -129 9 -173 31 -18 9 -48 30 -65 47 -18 17 -33 26 -33
20 0 -17 59 -64 110 -87 34 -15 67 -21 135 -21 56 -1 112 -8 149 -19 90 -28
239 -19 324 19 66 30 127 87 138 130 10 41 -5 93 -37 129 l-30 34 34 11 c46
16 97 71 108 117 16 72 -10 147 -62 178 l-28 17 49 47 c76 74 79 158 8 231
-64 66 -210 107 -336 94 l-52 -6 30 64 c64 138 88 331 59 471 -25 118 -107
246 -183 285 -40 21 -123 20 -163 -1 -18 -9 -34 -16 -37 -16 -3 0 -22 33 -42
73 -131 265 -334 392 -644 403 -66 2 -129 -2 -170 -11z m1409 -1294 c76 -23
125 -60 151 -111 36 -70 19 -128 -54 -186 l-36 -29 -137 3 c-153 3 -270 -12
-348 -47 -135 -60 -222 28 -156 157 43 84 171 182 285 218 65 20 223 17 295
-5z m-3074 -425 c41 -98 75 -180 75 -182 0 -2 -24 -5 -52 -7 l-53 -3 56 -2 57
-2 105 -212 c58 -117 142 -278 187 -358 l80 -145 -32 -27 c-133 -112 -350
-124 -396 -22 -45 98 47 172 160 129 17 -7 17 -5 3 21 -8 16 -15 51 -15 77 0
49 24 117 41 117 5 0 9 4 9 9 0 4 -55 11 -122 14 -244 11 -382 83 -423 219
-45 154 30 376 184 541 40 43 46 46 53 30 4 -10 41 -98 83 -197z m3096 84 c93
-17 130 -60 131 -150 0 -92 -54 -143 -182 -172 -73 -16 -343 -17 -396 -1 -91
28 -146 95 -129 160 11 47 85 108 160 133 106 35 309 50 416 30z m17 -363 c82
-85 34 -192 -112 -251 -77 -31 -261 -30 -331 2 -126 58 -156 149 -76 232 l36
37 155 -4 c85 -3 180 0 210 5 83 15 84 14 118 -21z m-2956 -440 c-2 -9 1 -32
7 -51 l9 -34 -52 -4 c-28 -3 -59 -8 -68 -12 -13 -6 -19 -2 -24 20 -14 54 39
107 101 102 22 -2 29 -7 27 -21z"/>
<path d="M1669 2959 c-16 -17 -29 -34 -29 -38 0 -4 28 -13 62 -19 67 -12 212
-77 267 -119 58 -44 21 5 -66 88 -76 72 -149 119 -187 119 -10 0 -31 -14 -47
-31z"/>
<path d="M659 2743 c-38 -35 -64 -74 -101 -151 -28 -56 -48 -105 -46 -108 3
-2 18 14 34 37 41 60 149 155 205 181 67 32 64 48 -16 78 -23 9 -31 5 -76 -37z"/>
<path d="M1689 2701 c-86 -27 -131 -98 -137 -215 -5 -106 20 -178 89 -249 l48
-50 -29 -36 c-15 -20 -30 -45 -33 -56 -17 -63 -15 -65 7 -20 67 133 223 218
370 201 41 -4 46 -3 26 5 -14 6 -57 11 -97 11 -67 1 -71 2 -62 20 12 22 14 92
4 139 -27 130 -153 202 -234 133 -39 -33 -66 -117 -56 -177 14 -82 79 -177
121 -177 18 0 18 -16 0 -23 -23 -9 -104 81 -126 140 -23 60 -27 160 -9 214 69
205 308 157 365 -74 15 -64 15 -115 -2 -164 -6 -15 -5 -16 7 -5 20 18 17 146
-4 209 -20 56 -83 135 -126 157 -36 19 -91 27 -122 17z m41 -128 c11 -17 11
-17 6 0 -7 23 4 22 45 -6 46 -30 83 -107 84 -171 0 -78 -17 -107 -78 -134 -48
-22 -54 -22 -83 -8 -117 55 -141 306 -29 306 31 0 51 -40 35 -71 -21 -38 -70
-17 -70 31 0 14 -3 20 -8 13 -4 -6 -7 -47 -7 -91 0 -67 4 -84 25 -115 44 -65
120 -84 120 -31 0 27 27 33 37 8 4 -12 9 -8 19 16 20 46 17 109 -6 154 -10 22
-17 43 -13 49 3 6 1 7 -5 3 -7 -4 -22 0 -34 8 -12 9 -30 16 -40 16 -10 0 -18
5 -18 10 0 6 -12 10 -27 10 -22 0 -25 2 -13 10 23 15 48 12 60 -7z"/>
<path d="M760 2468 c-47 -13 -106 -72 -127 -127 -35 -90 -15 -247 39 -316 11
-14 19 -27 17 -29 -2 -2 -26 -17 -54 -35 -27 -17 -45 -31 -38 -31 6 0 15 4 18
10 10 16 135 50 186 50 60 0 130 -23 189 -62 l45 -30 -38 37 c-39 37 -39 37
-19 58 28 32 32 40 47 113 43 205 -105 408 -265 362z m135 -32 c95 -56 148
-196 121 -324 -14 -68 -52 -132 -78 -132 -24 0 -23 12 3 28 53 33 77 179 43
260 -18 45 -67 97 -105 112 -60 25 -134 -14 -165 -87 -18 -42 -18 -151 0 -194
8 -19 24 -46 35 -61 l21 -26 -32 -7 c-27 -6 -35 -3 -53 19 -37 46 -59 125 -59
206 0 64 4 83 29 129 55 100 149 130 240 77z m-35 -85 c13 9 12 10 -2 5 -10
-3 -18 -1 -18 4 0 16 30 12 36 -4 3 -8 11 -13 18 -10 16 6 19 -51 5 -78 -22
-40 -69 -14 -69 38 l0 33 -35 -32 c-36 -34 -55 -72 -55 -114 0 -41 21 -99 46
-128 13 -16 24 -33 25 -39 1 -6 4 0 8 14 9 32 41 40 41 11 0 -25 26 -28 57 -6
52 37 64 141 24 210 -20 34 -32 75 -23 75 4 0 18 -16 31 -35 35 -52 42 -165
12 -223 -29 -57 -56 -73 -103 -63 -21 5 -38 7 -38 5 0 -15 -44 23 -65 56 -66
105 -45 249 43 286 21 9 29 9 37 -2 7 -10 14 -11 25 -3z"/>
<path d="M2039 1990 c13 -11 29 -20 37 -20 26 0 14 -18 -43 -70 -84 -75 -233
-172 -353 -229 -199 -95 -345 -131 -526 -131 -159 0 -259 27 -352 97 l-33 25
38 34 38 35 -47 -32 c-26 -18 -74 -38 -105 -45 -43 -9 -50 -13 -26 -13 17 -1
43 3 58 9 22 8 33 5 73 -24 26 -19 72 -45 102 -59 40 -17 65 -37 90 -72 39
-54 125 -127 181 -156 21 -10 49 -35 63 -56 40 -59 106 -123 150 -145 55 -29
138 -28 197 0 108 52 217 207 279 397 14 43 41 93 69 130 25 33 68 102 94 155
68 132 75 139 145 133 31 -3 67 -1 79 4 15 6 -1 8 -55 9 -56 0 -91 7 -127 22
-47 21 -49 21 -26 2z m1 -115 c0 -11 -66 -123 -106 -180 -151 -215 -411 -367
-629 -369 -69 -1 -87 3 -134 27 -50 27 -209 173 -199 183 3 2 40 -1 84 -7 131
-18 292 3 465 61 145 48 337 153 449 244 52 42 70 53 70 41z m-327 -556 c-25
-43 -102 -113 -154 -140 -42 -21 -69 -24 -166 -16 -25 2 -19 19 24 58 34 32
58 44 101 52 36 7 38 3 17 -33 -26 -46 -15 -46 14 0 15 25 37 53 48 62 21 19
87 46 116 47 17 1 17 0 0 -30z m-23 -72 c0 -2 -17 -19 -37 -38 l-38 -34 34 38
c33 34 41 42 41 34z m-235 -115 c-3 -3 -11 0 -18 7 -9 10 -8 11 6 5 10 -3 15
-9 12 -12z m42 2 c-3 -3 -12 -4 -19 -1 -8 3 -5 6 6 6 11 1 17 -2 13 -5z"/>
<path d="M1751 1076 c-57 -58 -126 -88 -221 -94 -57 -4 -69 -7 -51 -14 29 -10
125 6 185 32 46 19 110 71 127 101 15 28 8 24 -40 -25z"/>
</g>
</svg>
